HIERARCHY
ROOT Hips
{
 OFFSET 0.000000 0.000000 0.000000
 CHANNELS 6 Xposition Yposition Zposition Yrotation Xrotation Zrotation
 JOINT Chest
 {
  OFFSET 0.000000 9.588913 -0.003946
  CHANNELS 3 Yrotation Xrotation Zrotation
  JOINT Chest2
  {
   OFFSET 0.000000 9.541882 0.008053
   CHANNELS 3 Yrotation Xrotation Zrotation
   JOINT Chest3
   {
    OFFSET 0.000000 9.501360 0.000000
    CHANNELS 3 Yrotation Xrotation Zrotation
    JOINT Chest4
    {
     OFFSET 0.000000 9.491660 0.000000
     CHANNELS 3 Yrotation Xrotation Zrotation
     JOINT Neck
     {
      OFFSET 0.000000 14.331917 0.000000
      CHANNELS 3 Yrotation Xrotation Zrotation
      JOINT Head
      {
       OFFSET 0.000000 8.884799 0.017034
       CHANNELS 3 Yrotation Xrotation Zrotation
       End Site
       {
        OFFSET 0.000000 16.896195 0.008993
       }
      }
     }
     JOINT RightCollar
     {
      OFFSET -2.923010 9.499495 0.000000
      CHANNELS 3 Yrotation Xrotation Zrotation
      JOINT RightShoulder
      {
       OFFSET -13.795216 0.000000 0.000000
       CHANNELS 3 Yrotation Xrotation Zrotation
       JOINT RightElbow
       {
        OFFSET -30.272209 0.000000 0.000000
        CHANNELS 3 Yrotation Xrotation Zrotation
        JOINT RightWrist
        {
         OFFSET -24.478199 0.000000 0.000000
         CHANNELS 3 Yrotation Xrotation Zrotation
         End Site
         {
          OFFSET -18.090752 0.000000 0.000000
         }
        }
       }
      }
     }
     JOINT LeftCollar
     {
      OFFSET 2.923010 9.499495 0.000000
      CHANNELS 3 Yrotation Xrotation Zrotation
      JOINT LeftShoulder
      {
       OFFSET 13.795216 0.000000 0.000000
       CHANNELS 3 Yrotation Xrotation Zrotation
       JOINT LeftElbow
       {
        OFFSET 30.272209 0.000000 0.000000
        CHANNELS 3 Yrotation Xrotation Zrotation
        JOINT LeftWrist
        {
         OFFSET 24.478199 0.000000 0.000000
         CHANNELS 3 Yrotation Xrotation Zrotation
         End Site
         {
          OFFSET 18.090752 0.000000 0.000000
         }
        }
       }
      }
     }
    }
   }
  }
 }
 JOINT RightHip
 {
  OFFSET -7.826875 0.019532 0.001973
  CHANNELS 3 Yrotation Xrotation Zrotation
  JOINT RightKnee
  {
   OFFSET 0.000000 -40.546152 -0.001885
   CHANNELS 3 Yrotation Xrotation Zrotation
   JOINT RightAnkle
   {
    OFFSET 0.000000 -39.417092 -0.003189
    CHANNELS 3 Yrotation Xrotation Zrotation
    JOINT RightToe
    {
     OFFSET 0.000000 -7.579396 17.243563
     CHANNELS 3 Yrotation Xrotation Zrotation
     End Site
     {
      OFFSET 0.000000 -1.500329 6.694466
     }
    }
   }
  }
 }
 JOINT LeftHip
 {
  OFFSET 7.826875 0.019532 0.001973
  CHANNELS 3 Yrotation Xrotation Zrotation
  JOINT LeftKnee
  {
   OFFSET 0.000000 -40.546152 -0.001885
   CHANNELS 3 Yrotation Xrotation Zrotation
   JOINT LeftAnkle
   {
    OFFSET 0.000000 -39.417092 -0.003189
    CHANNELS 3 Yrotation Xrotation Zrotation
    JOINT LeftToe
    {
     OFFSET 0.000000 -7.579396 17.243563
     CHANNELS 3 Yrotation Xrotation Zrotation
     End Site
     {
      OFFSET 0.000000 -1.500329 6.694466
     }
    }
   }
  }
 }
}
MOTION
Frames: 9
Frame Time: 0.008333
18.888485 95.251932 -18.170035 -162.753769 3.578263 3.523601 5.164201 -0.875829 -7.598660 2.944384 -0.525643 -4.757437 3.686538 -0.618667 -5.950578 2.944384 -0.525643 -4.757437 -9.280777 1.791801 2.275594 -11.989582 -24.410232 5.415544 6.202363 -18.315620 -27.142547 38.698271 -49.007648 -8.613945 14.669534 -37.517404 -13.724387 7.759090 -6.791622 -11.863189 7.491259 1.129243 12.314581 32.082003 2.226058 -72.376695 2.426525 -4.597083 -3.584424 -3.315243 -1.506926 -2.470776 -13.507430 -0.892270 3.590189 3.642736 6.261123 -0.795116 10.803681 27.091355 20.367420 9.154545 -34.932471 -29.073029 6.081265 6.589736 6.705444 -7.675592 4.583505 0.073852 -23.714745 45.352455 -30.218871 -16.126515 -63.306082 25.682015
18.918015 95.224873 -18.171664 -162.755942 3.601237 3.477666 5.158081 -0.862986 -7.582649 2.939979 -0.518265 -4.753561 3.680932 -0.609536 -5.945667 2.939979 -0.518265 -4.753561 -9.271424 1.761172 2.298934 -11.989282 -24.446651 5.444275 6.114911 -18.344805 -27.120661 38.706962 -48.974929 -8.706581 14.587207 -37.220977 -13.709710 6.533156 -6.573616 -11.061567 7.465387 1.100758 12.347577 32.022303 2.182231 -72.394430 2.419247 -4.659671 -3.598942 -3.278085 -1.509968 -2.520807 -13.497530 -0.866043 3.671857 3.722145 6.221361 -0.799095 10.691462 27.020825 20.248592 9.092629 -34.857815 -28.963108 5.968693 6.498413 6.741179 -7.672657 4.670501 0.091324 -23.828452 45.402030 -30.353081 -16.286564 -63.391694 25.887436
18.945276 95.199966 -18.178686 -162.750913 3.606532 3.426806 5.150961 -0.847624 -7.560469 2.934540 -0.509080 -4.746493 3.674007 -0.598185 -5.936752 2.934540 -0.509080 -4.746493 -9.268392 1.740170 2.323106 -11.995985 -24.471544 5.475159 6.029933 -18.364272 -27.100284 38.748725 -48.911968 -8.807917 14.423809 -36.808340 -13.730662 5.272010 -6.329548 -10.262761 7.432304 1.082111 12.379348 31.956466 2.143813 -72.426872 2.415921 -4.745632 -3.611351 -3.252879 -1.516035 -2.555860 -13.467397 -0.816384 3.750519 3.788936 6.167478 -0.805632 10.589128 26.969696 20.158951 9.041726 -34.794513 -28.877273 5.852533 6.419071 6.782341 -7.675096 4.775449 0.111081 -23.940670 45.432424 -30.479043 -16.447463 -63.470763 26.096471
18.969910 95.177740 -18.190911 -162.740579 3.597269 3.372358 5.140470 -0.832920 -7.530675 2.927317 -0.499810 -4.737006 3.664848 -0.586771 -5.924810 2.927317 -0.499810 -4.737006 -9.264493 1.733693 2.348381 -11.999753 -24.478956 5.505760 5.957999 -18.369726 -27.082461 38.826090 -48.839231 -8.913112 14.209583 -36.366877 -13.774312 4.011890 -6.096215 -9.493794 7.401727 1.074395 12.410695 31.887230 2.112545 -72.464051 2.411607 -4.834806 -3.626632 -3.240155 -1.524048 -2.574835 -13.441796 -0.749039 3.821253 3.831793 6.105828 -0.807195 10.525374 26.937894 20.087766 9.003247 -34.744095 -28.813229 5.732388 6.354166 6.827779 -7.685355 4.888754 0.130226 -24.045098 45.448161 -30.590893 -16.606440 -63.542379 26.304225
18.991279 95.158399 -18.207528 -162.733962 3.578516 3.316841 5.128567 -0.821607 -7.495747 2.919928 -0.491974 -4.725541 3.655501 -0.577167 -5.910409 2.919928 -0.491974 -4.725541 -9.256386 1.744733 2.372898 -11.995232 -24.465288 5.532412 5.910930 -18.359112 -27.070845 38.927203 -48.785077 -9.007322 13.991199 -35.951499 -13.830035 2.762779 -5.901455 -8.766876 7.373618 1.075429 12.440980 31.823273 2.088165 -72.496384 2.403682 -4.903434 -3.649747 -3.240888 -1.534568 -2.580254 -13.429301 -0.674681 3.881940 3.849652 6.048966 -0.799840 10.497162 26.919898 20.029635 8.978265 -34.708190 -28.769988 5.618902 6.301991 6.873560 -7.700089 5.005686 0.147042 -24.136717 45.455924 -30.681881 -16.759515 -63.609233 26.502027
19.008791 95.141988 -18.226744 -162.738713 3.559609 3.263887 5.117173 -0.816481 -7.460195 2.913432 -0.487423 -4.712431 3.647310 -0.571668 -5.893979 2.913432 -0.487423 -4.712431 -9.240928 1.772172 2.396206 -11.978398 -24.431881 5.553653 5.897231 -18.327782 -27.068317 39.027297 -48.764550 -9.077441 13.809006 -35.600387 -13.888654 1.544792 -5.748000 -8.070347 7.346670 1.082732 12.468742 31.766961 2.068987 -72.518713 2.393164 -4.940855 -3.681820 -3.254305 -1.546131 -2.582674 -13.421438 -0.609835 3.933828 3.855036 6.009235 -0.786322 10.480699 26.908933 19.988407 8.965682 -34.687383 -28.748099 5.523103 6.253483 6.913656 -7.714702 5.125276 0.160820 -24.211036 45.463794 -30.748416 -16.902842 -63.676435 26.681204
19.022316 95.128432 -18.247174 -162.757395 3.546843 3.214384 5.107400 -0.818425 -7.427543 2.908350 -0.487137 -4.698311 3.640941 -0.571489 -5.876323 2.908350 -0.487137 -4.698311 -9.217330 1.812503 2.420735 -11.949530 -24.382933 5.572565 5.909018 -18.275742 -27.073043 39.104359 -48.769638 -9.117393 13.684499 -35.350740 -13.932445 0.391325 -5.604189 -7.385077 7.323128 1.095694 12.496505 31.705728 2.050488 -72.532999 2.382700 -4.952077 -3.719014 -3.271885 -1.553839 -2.594089 -13.409375 -0.565747 3.976760 3.859286 5.991635 -0.768146 10.479201 26.903657 19.964502 8.963572 -34.678996 -28.745901 5.443668 6.202644 6.945790 -7.721541 5.245212 0.170521 -24.268665 45.479826 -30.790191 -17.033756 -63.749343 26.836933
19.031792 95.117567 -18.268973 -162.787880 3.536302 3.167242 5.100134 -0.824205 -7.398268 2.905316 -0.489256 -4.684371 3.637162 -0.574288 -5.858913 2.905316 -0.489257 -4.684371 -9.189416 1.860464 2.448946 -11.915138 -24.324782 5.593910 5.927384 -18.212726 -27.078351 39.159067 -48.781104 -9.135193 13.614876 -35.213590 -13.945515 -0.669790 -5.437111 -6.694633 7.301928 1.109575 12.525691 31.629967 2.026595 -72.539599 2.374053 -4.945266 -3.755145 -3.277317 -1.549833 -2.621860 -13.394511 -0.535362 4.010386 3.865439 5.989893 -0.745306 10.497687 26.906759 19.954237 8.970943 -34.681338 -28.759791 5.374086 6.150598 6.969319 -7.715718 5.370268 0.178664 -24.309631 45.505808 -30.807469 -17.151796 -63.831750 26.967170
19.036797 95.109219 -18.293307 -162.821535 3.516212 3.123133 5.093573 -0.828480 -7.370687 2.903245 -0.490200 -4.671572 3.634573 -0.575596 -5.842921 2.903244 -0.490200 -4.671572 -9.161462 1.911452 2.481249 -11.881567 -24.262996 5.619998 5.943366 -18.148060 -27.080453 39.199449 -48.792421 -9.141454 13.578823 -35.147607 -13.932061 -1.624775 -5.251040 -5.988739 7.281386 1.118679 12.552042 31.545528 1.994370 -72.535839 2.363923 -4.924638 -3.784199 -3.262186 -1.533830 -2.670510 -13.385275 -0.497792 4.036479 3.874293 5.991957 -0.721862 10.512383 26.918964 19.955092 8.985740 -34.695869 -28.783922 5.303656 6.101001 6.979786 -7.698236 5.515816 0.193017 -24.331152 45.537677 -30.800370 -17.259743 -63.926913 27.072443
